HIERARCHY
ROOT Hips
{
    OFFSET   0.000000   0.000000   0.000000
    CHANNELS 6 Xposition Yposition Zposition Zrotation Xrotation Yrotation
    JOINT Chest
    {
        OFFSET   0.000000   8.007230   0.000000
        CHANNELS 3 Zrotation Xrotation Yrotation
        JOINT Chest2
        {
            OFFSET   0.000000  22.077100   0.000000
            CHANNELS 3 Zrotation Xrotation Yrotation
            JOINT Neck
            {
                OFFSET   0.000000  23.254800  -0.000021
                CHANNELS 3 Zrotation Xrotation Yrotation
                JOINT Head
                {
                    OFFSET   0.000000  14.370000   1.956610
                    CHANNELS 3 Zrotation Xrotation Yrotation
                    End Site
                    {
                        OFFSET   0.000000  19.566000   0.000000
                    }
                }
            }
            JOINT LeftCollar
            {
                OFFSET   3.911900  19.017000  -0.467063
                CHANNELS 3 Zrotation Xrotation Yrotation
                JOINT LeftShoulder
                {
                    OFFSET  10.383700   0.000000   0.000000
                    CHANNELS 3 Zrotation Xrotation Yrotation
                    JOINT LeftElbow
                    {
                        OFFSET  26.662100   0.001529   0.000325
                        CHANNELS 3 Zrotation Xrotation Yrotation
                        JOINT LeftWrist
                        {
                            OFFSET  28.869000  -0.000011  -0.000096
                            CHANNELS 3 Zrotation Xrotation Yrotation
                            JOINT LeftFinger0
                            {
                                OFFSET   2.044650  -2.323460   3.252850
                                CHANNELS 3 Zrotation Xrotation Yrotation
                                JOINT LeftFinger01
                                {
                                    OFFSET   3.088130   0.000000   0.000000
                                    CHANNELS 3 Zrotation Xrotation Yrotation
                                    JOINT LeftFinger02
                                    {
                                        OFFSET   2.639460   0.000000   0.000000
                                        CHANNELS 3 Zrotation Xrotation Yrotation
                                        End Site
                                        {
                                            OFFSET   2.582190   0.000000   0.000000
                                        }
                                    }
                                }
                            }
                            JOINT LeftFinger1
                            {
                                OFFSET   8.364480   0.000000   3.252850
                                CHANNELS 3 Zrotation Xrotation Yrotation
                                JOINT LeftFinger11
                                {
                                    OFFSET   4.646930   0.000000   0.000000
                                    CHANNELS 3 Zrotation Xrotation Yrotation
                                    JOINT LeftFinger12
                                    {
                                        OFFSET   2.323460   0.000000   0.000000
                                        CHANNELS 3 Zrotation Xrotation Yrotation
                                        End Site
                                        {
                                            OFFSET   2.273050   0.000000   0.000000
                                        }
                                    }
                                }
                            }
                            JOINT LeftFinger2
                            {
                                OFFSET   8.364480   0.000016   1.078090
                                CHANNELS 3 Zrotation Xrotation Yrotation
                                JOINT LeftFinger21
                                {
                                    OFFSET   5.111620   0.000000   0.000000
                                    CHANNELS 3 Zrotation Xrotation Yrotation
                                    JOINT LeftFinger22
                                    {
                                        OFFSET   2.788160   0.000017   0.000000
                                        CHANNELS 3 Zrotation Xrotation Yrotation
                                        End Site
                                        {
                                            OFFSET   2.727660   0.000000   0.000000
                                        }
                                    }
                                }
                            }
                            JOINT LeftFinger3
                            {
                                OFFSET   7.899780   0.000015  -1.078090
                                CHANNELS 3 Zrotation Xrotation Yrotation
                                JOINT LeftFinger31
                                {
                                    OFFSET   4.646920   0.000000   0.000000
                                    CHANNELS 3 Zrotation Xrotation Yrotation
                                    JOINT LeftFinger32
                                    {
                                        OFFSET   2.323470   0.000000   0.000000
                                        CHANNELS 3 Zrotation Xrotation Yrotation
                                        End Site
                                        {
                                            OFFSET   2.273050   0.000000   0.000000
                                        }
                                    }
                                }
                            }
                            JOINT LeftFinger4
                            {
                                OFFSET   7.435090   0.000000  -3.252850
                                CHANNELS 3 Zrotation Xrotation Yrotation
                                JOINT LeftFinger41
                                {
                                    OFFSET   3.717550   0.000000   0.000000
                                    CHANNELS 3 Zrotation Xrotation Yrotation
                                    JOINT LeftFinger42
                                    {
                                        OFFSET   1.858760   0.000000   0.000000
                                        CHANNELS 3 Zrotation Xrotation Yrotation
                                        End Site
                                        {
                                            OFFSET   1.818440   0.000000   0.000000
                                        }
                                    }
                                }
                            }
                        }
                    }
                }
            }
            JOINT RightCollar
            {
                OFFSET  -3.911900  19.017000  -0.467062
                CHANNELS 3 Zrotation Xrotation Yrotation
                JOINT RightShoulder
                {
                    OFFSET -10.383700   0.000015   0.000000
                    CHANNELS 3 Zrotation Xrotation Yrotation
                    JOINT RightElbow
                    {
                        OFFSET -26.662100   0.001341   0.000385
                        CHANNELS 3 Zrotation Xrotation Yrotation
                        JOINT RightWrist
                        {
                            OFFSET -28.869000   0.000025  -0.000080
                            CHANNELS 3 Zrotation Xrotation Yrotation
                            JOINT RightFinger0
                            {
                                OFFSET  -2.044650  -2.323490   3.252850
                                CHANNELS 3 Zrotation Xrotation Yrotation
                                JOINT RightFinger01
                                {
                                    OFFSET  -3.088130   0.000000   0.000000
                                    CHANNELS 3 Zrotation Xrotation Yrotation
                                    JOINT RightFinger02
                                    {
                                        OFFSET  -2.639460   0.000000   0.000000
                                        CHANNELS 3 Zrotation Xrotation Yrotation
                                        End Site
                                        {
                                            OFFSET  -2.582190   0.000000   0.000000
                                        }
                                    }
                                }
                            }
                            JOINT RightFinger1
                            {
                                OFFSET  -8.364480   0.000000   3.252850
                                CHANNELS 3 Zrotation Xrotation Yrotation
                                JOINT RightFinger11
                                {
                                    OFFSET  -4.646930   0.000000   0.000000
                                    CHANNELS 3 Zrotation Xrotation Yrotation
                                    JOINT RightFinger12
                                    {
                                        OFFSET  -2.323470   0.000000   0.000000
                                        CHANNELS 3 Zrotation Xrotation Yrotation
                                        End Site
                                        {
                                            OFFSET  -2.273050   0.000000   0.000000
                                        }
                                    }
                                }
                            }
                            JOINT RightFinger2
                            {
                                OFFSET  -8.364480   0.000000   1.078090
                                CHANNELS 3 Zrotation Xrotation Yrotation
                                JOINT RightFinger21
                                {
                                    OFFSET  -5.111610   0.000000   0.000000
                                    CHANNELS 3 Zrotation Xrotation Yrotation
                                    JOINT RightFinger22
                                    {
                                        OFFSET  -2.788160   0.000000   0.000000
                                        CHANNELS 3 Zrotation Xrotation Yrotation
                                        End Site
                                        {
                                            OFFSET  -2.727660   0.000000   0.000000
                                        }
                                    }
                                }
                            }
                            JOINT RightFinger3
                            {
                                OFFSET  -7.899780   0.000000  -1.078090
                                CHANNELS 3 Zrotation Xrotation Yrotation
                                JOINT RightFinger31
                                {
                                    OFFSET  -4.646920   0.000000   0.000000
                                    CHANNELS 3 Zrotation Xrotation Yrotation
                                    JOINT RightFinger32
                                    {
                                        OFFSET  -2.323470   0.000000   0.000000
                                        CHANNELS 3 Zrotation Xrotation Yrotation
                                        End Site
                                        {
                                            OFFSET  -2.273050   0.000000   0.000000
                                        }
                                    }
                                }
                            }
                            JOINT RightFinger4
                            {
                                OFFSET  -7.435090   0.000000  -3.252850
                                CHANNELS 3 Zrotation Xrotation Yrotation
                                JOINT RightFinger41
                                {
                                    OFFSET  -3.717550   0.000000   0.000000
                                    CHANNELS 3 Zrotation Xrotation Yrotation
                                    JOINT RightFinger42
                                    {
                                        OFFSET  -1.858770   0.000000   0.000000
                                        CHANNELS 3 Zrotation Xrotation Yrotation
                                        End Site
                                        {
                                            OFFSET  -1.818440   0.000000   0.000000
                                        }
                                    }
                                }
                            }
                        }
                    }
                }
            }
        }
    }
    JOINT LeftHip
    {
        OFFSET   9.783010   0.000000   0.000000
        CHANNELS 3 Zrotation Xrotation Yrotation
        JOINT LeftKnee
        {
            OFFSET   0.000070 -41.789100   0.000028
            CHANNELS 3 Zrotation Xrotation Yrotation
            JOINT LeftAnkle
            {
                OFFSET   0.000087 -41.133200  -0.000100
                CHANNELS 3 Zrotation Xrotation Yrotation
                JOINT LeftToe
                {
                    OFFSET   0.000000  -6.358960  14.674500
                    CHANNELS 3 Zrotation Xrotation Yrotation
                    End Site
                    {
                        OFFSET   0.000000   0.000000   3.913200
                    }
                }
            }
        }
    }
    JOINT RightHip
    {
        OFFSET  -9.783020   0.000000   0.000000
        CHANNELS 3 Zrotation Xrotation Yrotation
        JOINT RightKnee
        {
            OFFSET   0.000044 -41.789100  -0.000870
            CHANNELS 3 Zrotation Xrotation Yrotation
            JOINT RightAnkle
            {
                OFFSET  -0.000090 -41.133200  -0.000245
                CHANNELS 3 Zrotation Xrotation Yrotation
                JOINT RightToe
                {
                    OFFSET   0.000000  -6.358960  14.674500
                    CHANNELS 3 Zrotation Xrotation Yrotation
                    End Site
                    {
                        OFFSET   0.000000   0.000000   3.913200
                    }
                }
            }
        }
    }
}
MOTION
Frames: 4
Frame Time:   0.016667
 -0.050267  89.477400   1.044500  -0.914846  -3.073010   1.925100   0.890046   3.921330  -1.141980   1.865010   7.823570  -2.353300  -1.171910  -0.754863  -0.014391  -1.926100  -1.528720   7.624410  -7.756330  -0.230726  11.903600 -74.698600  14.796000   2.388960   0.378445   5.049650 -18.831000   8.558550  -6.410460  -3.154730  43.082100  38.598600 -55.086300 -32.831900   0.000000   0.000000 -11.416000   0.000368   0.001012 -35.264900   0.081661  -0.115196 -28.853200  -0.003617   0.001545 -20.197200  -0.002749  -0.001024 -29.834400   0.069356  -0.122599 -44.751800  -0.010084  -0.003132 -29.804700   0.004239   0.001219 -28.415000  -4.791010   8.775010 -41.515300  -0.002512   0.002180 -27.649200  -0.002167  -0.000828 -34.707100  -8.358540  11.858900 -53.365100  -0.003643   0.001245 -35.541100  -0.002450  -0.002794   8.602480   3.466740   8.988460  66.742900   0.350039   0.257311   4.712670  -6.530970  12.280800 -16.710100  -1.720150   6.674680 -36.317200  20.119000  52.918800  27.543100   0.000093  -0.003649   8.778330  -0.001311  -0.000606  25.920000   0.500977   1.053090  21.211000  -0.002024   0.000600  14.847700  -0.004013  -0.002698  25.872200  -0.458205  -0.918718  25.875900  -0.000691   0.001627  17.233400   0.000000  -0.007604  25.108800  -1.399730  -2.983880  25.145200  -0.004009   0.002285  16.746700  -0.004921   0.004238  30.713100  -1.684590  -2.832920  46.132100   0.002333   0.004127  30.724000   0.002711   0.005077   2.725100   5.207920   0.977799   0.190551   0.329404   9.116780  -2.078370  -2.788580  -1.080870  -0.000000   0.000000   0.000000  -0.497917   6.291150  -5.026890   0.886078   0.722066  -9.051020   0.142160  -3.850330  -3.562380   0.000000   0.000000   0.000000
 -0.042697  89.477400   1.044640  -0.915679  -3.085870   1.924970   0.895698   3.927060  -1.140210   1.876370   7.834950  -2.350260  -1.168750  -0.738141  -0.014391  -1.920920  -1.494850   7.624740  -7.754810  -0.230679  11.915700 -74.705000  14.807900   2.381410   0.381695   5.049550 -18.831000   8.572410  -6.425050  -3.140930  43.075000  38.590800 -55.087100 -32.839200   0.000000   0.000000 -11.419700   0.000377   0.001001 -35.276600   0.081688  -0.115233 -28.862800  -0.003618   0.001546 -20.203900  -0.002748  -0.001024 -29.829100   0.069540  -0.122638 -44.743900  -0.010086  -0.003133 -29.799400   0.004239   0.001220 -28.415000  -4.791010   8.775010 -41.528200  -0.002512   0.002180 -27.657700  -0.002167  -0.000828 -34.712200  -8.358430  11.857900 -53.372200  -0.003642   0.001245 -35.545900  -0.002451  -0.002794   8.603820   3.459470   8.985390  66.732600   0.370265   0.296443   4.691410  -6.504020  12.279500 -16.703200  -1.746030   6.693960 -36.320000  20.149500  52.951400  27.549900   0.000101  -0.003647   8.778340  -0.001308  -0.000606  25.937300   0.500980   1.040970  21.225200  -0.002023   0.000601  14.857600  -0.004009  -0.002701  25.883900  -0.458204  -0.931115  25.887600  -0.000691   0.001628  17.241200   0.000000  -0.007602  25.120200  -1.406130  -2.995480  25.156900  -0.004005   0.002287  16.754500  -0.004919   0.004241  30.732000  -1.692540  -2.843560  46.161100   0.002335   0.004127  30.743300   0.002713   0.005075   2.725640   5.221910   0.969418   0.188782   0.324801   9.130190  -2.078420  -2.785170  -1.080890  -0.000000   0.000000   0.000000  -0.501813   6.301420  -5.021780   0.886470   0.724250  -9.056420   0.145860  -3.850320  -3.563870   0.000000   0.000000  -0.000000
 -0.030257  89.477300   1.044860  -0.917949  -3.108190   1.924850   0.905020   3.937190  -1.137350   1.895120   7.855050  -2.345370  -1.162090  -0.709596  -0.014387  -1.909920  -1.437000   7.625000  -7.751680  -0.230588  11.927700 -74.713600  14.830100   2.365850   0.388882   5.049410 -18.831000   8.587520  -6.444490  -3.120520  43.057100  38.580500 -55.091400 -32.851400   0.000000   0.000000 -11.425700   0.000386   0.000986 -35.295800   0.081726  -0.115285 -28.878500  -0.003619   0.001548 -20.214900  -0.002746  -0.001024 -29.816900   0.069845  -0.122693 -44.725500  -0.010091  -0.003135 -29.787200   0.004239   0.001222 -28.415000  -4.791010   8.775010 -41.550400  -0.002513   0.002182 -27.672500  -0.002167  -0.000829 -34.721300  -8.358300  11.855000 -53.385100  -0.003642   0.001246 -35.554500  -0.002453  -0.002795   8.606910   3.444170   8.974370  66.714000   0.421365   0.378763   4.664050  -6.451270  12.273700 -16.691900  -1.771870   6.722680 -36.328200  20.198600  53.002800  27.556700   0.000116  -0.003645   8.778350  -0.001301  -0.000606  25.960600   0.500982   1.028840  21.244200  -0.002021   0.000606  14.870900  -0.003999  -0.002707  25.899900  -0.458201  -0.943512  25.903700  -0.000690   0.001632  17.251900   0.000000  -0.007598  25.138200  -1.412520  -3.007080  25.175300  -0.003996   0.002293  16.766800  -0.004911   0.004248  30.760800  -1.700500  -2.854210  46.204900   0.002340   0.004128  30.772500   0.002717   0.005068   2.726340   5.249540   0.957388   0.184130   0.310336   9.143600  -2.078370  -2.775750  -1.080910   0.000000   0.000000  -0.000000  -0.507814   6.319820  -5.012530   0.887070   0.727484  -9.064880   0.151261  -3.850290  -3.567920   0.000000   0.000000   0.000000
 -0.020453  89.477200   1.045000  -0.922083  -3.127520   1.924930   0.912473   3.946250  -1.134730   1.910120   7.873060  -2.340940  -1.153780  -0.686100  -0.014296  -1.896180  -1.389320   7.620920  -7.747720  -0.230457  11.923900 -74.716100  14.852100   2.347930   0.398436   5.049540 -18.825100   8.589530  -6.450190  -3.107890  43.061000  38.596500 -55.126100 -32.861400   0.000000   0.000029 -11.430800   0.000381   0.000982 -35.312000   0.081741  -0.115310 -28.891700  -0.003620   0.001550 -20.224200  -0.002745  -0.001024 -29.799000   0.070150  -0.122719 -44.698700  -0.010098  -0.003134 -29.769300   0.004239   0.001224 -28.416300  -4.786500   8.766530 -41.571500  -0.002514   0.002184 -27.686600  -0.002168  -0.000830 -34.732400  -8.358270  11.848600 -53.401200  -0.003644   0.001247 -35.565200  -0.002454  -0.002796   8.608930   3.424020   8.952880  66.691300   0.500372   0.475960   4.647020  -6.388080  12.240600 -16.680600  -1.755400   6.735960 -36.339700  20.231100  53.039600  27.546400   0.000129  -0.003659   8.773210  -0.001290  -0.000616  25.967500   0.504041   1.034890  21.249800  -0.002009   0.000615  14.874900  -0.003986  -0.002714  25.905700  -0.456875  -0.940638  25.909600  -0.000683   0.001638  17.255800   0.000000  -0.007593  25.151700  -1.409270  -2.998820  25.188500  -0.003984   0.002302  16.775600  -0.004897   0.004257  30.777400  -1.696530  -2.846260  46.229500   0.002346   0.004127  30.788900   0.002724   0.005054   2.726500   5.282940   0.951160   0.176521   0.277861   9.140660  -2.073980  -2.758040  -1.075560  -0.000000   0.000000   0.000000  -0.511765   6.333200  -5.003030   0.887607   0.729505  -9.070160   0.153849  -3.849810  -3.575540  -0.000000   0.000000  -0.000000
